<svg width="40" height="40" viewBox="0 0 40 40" fill="none" xmlns="http://www.w3.org/2000/svg">
<g clip-path="url(#clip0_246_290)">
<path d="M16.0001 27.0742H8.83976L8 30H15.1604L16.0001 27.0742Z" fill="#240E87"/>
<path d="M23.9997 24.1489H16.8398L16 27.0742H23.1599L23.9997 24.1489Z" fill="#0072F6"/>
<path d="M32.0001 21.2231H24.8398L24 24.1489H31.1604L32.0001 21.2231Z" fill="#02BAF5"/>
<path d="M16.0001 21.2231H8.83976L8 24.1489H15.1604L16.0001 21.2231Z" fill="#240E87"/>
<path d="M23.9997 18.2974H16.8398L16 21.2231H23.1599L23.9997 18.2974Z" fill="#0072F6"/>
<path d="M32.0001 15.372H24.8398L24 18.2974H31.1604L32.0001 15.372Z" fill="#02BAF5"/>
<path d="M29.8887 13.4447L28.4279 12.4985L26.9671 13.4447L26.7158 13.1919L27.6564 11.7223L26.7158 10.2528L26.9671 10.0013L28.4279 10.9475L29.8887 10.0013L30.1396 10.2528L29.199 11.7223L30.1396 13.1919L29.8887 13.4447Z" fill="#FFD629"/>
</g>
<defs>
<clipPath id="clip0_246_290">
<rect width="24" height="20" fill="white" transform="translate(8 10)"/>
</clipPath>
</defs>
</svg>
