<svg xmlns="http://www.w3.org/2000/svg" width="100" height="24" viewBox="0 0 100 24">
    <path data-name="사각형 147831" style="fill:none" d="M0 0h100v24H0z"/>
    <g data-name="그룹 19467">
        <path data-name="패스 13097" d="m256.991 60.519-1.637-6.512-.007-.028H252.4l-1.606 6.553-1.766-6.526-.008-.027h-3.266l3.316 10.451.008.026h3.117l1.642-6.477 1.71 6.45.007.027h3.1l3.289-10.43.015-.047h-3.187z" transform="translate(-227.465 -45.058)" style="fill:#3617ce"/>
        <path data-name="패스 13098" d="M474.588 50.182a5.335 5.335 0 0 0-3.931 1.513 6.17 6.17 0 0 0-.007 8 5.885 5.885 0 0 0 7.856.031 5.524 5.524 0 0 0 1.508-4.017 5.131 5.131 0 0 0-5.426-5.524m0 8.629c-1.494 0-2.317-1.1-2.317-3.105s.816-3.125 2.3-3.125c2.05 0 2.356 1.957 2.356 3.125 0 2-.83 3.105-2.336 3.105" transform="translate(-435.103 -41.537)" style="fill:#3617ce"/>
        <path data-name="패스 13099" d="M643.713 50.182a3.745 3.745 0 0 0-3.144 1.784v-1.508h-2.951v10.477h3.089V56.2c0-2.074.879-3.125 2.613-3.125a4.692 4.692 0 0 1 .974.1l.176.038v-2.89l-.119-.035a2.171 2.171 0 0 0-.637-.1" transform="translate(-591.305 -41.537)" style="fill:#3617ce"/>
        <path data-name="패스 13100" d="M745.812 14.609h3.088V.227l-3.089 1.545z" transform="translate(-691.641 4.789)" style="fill:#3617ce"/>
        <path data-name="패스 13101" d="M813.849 2.084v3.328a3.759 3.759 0 0 0-2.908-1.266 4.253 4.253 0 0 0-3.471 1.639 6.127 6.127 0 0 0-1.186 3.787c0 2.789 1.458 5.6 4.716 5.6a3.587 3.587 0 0 0 2.987-1.3V14.9h2.951V.541zm-2.159 10.692c-1.6 0-2.317-1.569-2.317-3.125 0-1.973.837-3.105 2.3-3.105 1.982 0 2.278 1.933 2.278 3.085 0 2.028-.8 3.145-2.258 3.145" transform="translate(-747.72 4.498)" style="fill:#3617ce"/>
        <path data-name="사각형 147829" transform="translate(0 5)" style="fill:#3617ce" d="M0 0h13.58v3.408H0z"/>
        <path data-name="패스 13102" d="M66.61 61.631v9.918h3.9v-7.966z" transform="translate(-61.772 -52.154)" style="fill:#3617ce"/>
        <path data-name="패스 13103" d="M1043.385 4.322a3.679 3.679 0 0 0-3.171 1.359V.671h-1.927v14.341h1.927v-1.159a4.077 4.077 0 0 0 3.211 1.4 4.46 4.46 0 0 0 3.5-1.529 5.892 5.892 0 0 0 1.278-3.905c0-3.285-1.938-5.493-4.822-5.493m-.257 1.73c1.826 0 3.053 1.465 3.053 3.645 0 2.429-1.07 3.823-2.934 3.823a2.823 2.823 0 0 1-2.274-1.008 4.278 4.278 0 0 1-.818-2.736c0-2.262 1.167-3.724 2.974-3.724" transform="translate(-962.871 4.378)" style="fill:#3617ce"/>
        <path data-name="사각형 147830" transform="translate(87.119 8.937)" style="fill:#3617ce" d="M0 0h1.927v10.453H0z"/>
        <path data-name="패스 13104" d="m1252.158 62.922 6.068-7.375.029-.035V54.2h-8.183v1.73h5.622l-5.989 7.236-.028.035v1.452h8.854v-1.73z" transform="translate(-1158.908 -45.262)" style="fill:#3617ce"/>
        <path data-name="패스 13105" d="M1197.641 1.949a1.278 1.278 0 1 1-1.278-1.278 1.278 1.278 0 0 1 1.278 1.278" transform="translate(-1108.282 4.378)" style="fill:#3617ce"/>
    </g>
</svg>
