<svg xmlns="http://www.w3.org/2000/svg" width="32" height="32" viewBox="0 0 32 32">
    <g transform="translate(-39 7.863)">
        <circle data-name="타원 358" cx="16" cy="16" r="16" transform="translate(39 -7.863)" style="fill:none"/>
        <path data-name="패스 13052" d="M19.2 1.894a7.692 7.692 0 0 1-2.262.636A4.031 4.031 0 0 0 18.671.3a7.758 7.758 0 0 1-2.5.979A3.885 3.885 0 0 0 13.293 0a3.99 3.99 0 0 0-3.938 4.039 4.12 4.12 0 0 0 .1.92A11.091 11.091 0 0 1 1.337.737 4.113 4.113 0 0 0 .8 2.77a4.066 4.066 0 0 0 1.756 3.362 3.868 3.868 0 0 1-1.785-.5v.05a4.016 4.016 0 0 0 3.161 3.96 3.755 3.755 0 0 1-1.038.142 3.827 3.827 0 0 1-.742-.072 3.954 3.954 0 0 0 3.68 2.8 7.778 7.778 0 0 1-4.892 1.73 7.869 7.869 0 0 1-.94-.055A10.968 10.968 0 0 0 6.038 16c7.246 0 11.208-6.154 11.208-11.492 0-.176 0-.351-.01-.524a8.079 8.079 0 0 0 1.964-2.09" transform="translate(45.4 .137)" style="fill:#00aaec;fill-rule:evenodd"/>
    </g>
</svg>
