<svg width="214" height="25" viewBox="0 0 214 25" fill="none" xmlns="http://www.w3.org/2000/svg">
<path d="M47.2154 2.35918C45.0335 2.35918 43.1243 3.69245 43.1243 5.74569V8.1989C43.1243 10.3055 44.9244 11.5321 47.6517 11.5321H55.5338C58.0702 11.5321 59.9793 10.0122 59.9793 8.01225V5.98568C59.9793 3.23914 57.6611 2.35918 55.4519 2.35918H47.2154ZM62.0521 13.5587H41.3516V16.8118H49.7791V24.5715H53.461V16.8118H62.0521V13.5587ZM48.0881 8.81221C46.6972 8.81221 46.3426 7.95892 46.3426 6.99896C46.3426 6.06567 46.8063 5.26571 48.0881 5.26571H54.9065C55.9701 5.26571 56.6792 5.82569 56.6792 6.99896C56.6792 8.19891 55.9701 8.81221 54.9065 8.81221H48.0881Z" fill="black"/>
<path d="M71.3215 19.3717C73.4761 19.3717 75.9307 17.5585 75.9307 14.5453V8.38556C75.9307 5.07905 73.7488 3.37247 70.776 3.37247H69.2214C65.294 3.37247 63.9576 5.55903 63.9576 8.3589V14.8386C63.9576 18.2784 66.4668 19.3717 68.6487 19.3717H71.3215ZM81.9309 9.34552V2.11919H78.4126V24.3315H81.9309V12.7854H84.9855V9.34552H81.9309ZM69.576 16.6252C67.3941 16.6252 67.2577 14.9986 67.2577 14.1453V8.62555C67.2577 7.45227 67.9396 6.199 69.576 6.199H70.4214C72.0579 6.199 72.6579 7.71893 72.6579 8.89221V14.2786C72.6579 15.3186 71.7578 16.6252 70.4214 16.6252H69.576Z" fill="black"/>
<path d="M94.4717 2.11919H90.7353V3.63912H86.3442V6.09234H88.2534C87.6261 6.73231 87.2443 7.61227 87.2443 8.54556V11.5854C87.2443 13.5853 88.9625 15.1586 90.8989 15.1586H94.2808C96.2172 15.1586 97.9082 13.5587 97.9082 11.3188V8.54556C97.9082 7.61227 97.5264 6.73231 96.8991 6.09234H98.8628V3.63912H94.4717V2.11919ZM105.054 20.865H92.1808V16.6518H88.7443V24.0382H105.054V20.865ZM104.29 2.09253H100.772V17.2651H104.29V11.3188H107.508V8.11891H104.29V2.09253ZM94.7445 10.9454C94.7445 11.8254 94.199 12.4654 93.299 12.4654H91.7717C90.8989 12.4654 90.3807 11.8254 90.3807 10.9454V9.23886C90.3807 8.38556 91.1716 7.74559 92.0444 7.74559H93.1899C94.0899 7.74559 94.7445 8.38556 94.7445 9.23886V10.9454Z" fill="black"/>
<path d="M127.507 23.7507V3.08504H125.516V23.7507H127.507ZM121.725 4.81829H111.279V6.68487H119.543C119.27 9.96472 116.352 13.9112 112.561 16.9511V19.5109C113.897 18.4443 115.343 17.3244 116.434 16.1778C118.806 13.7245 121.725 9.83139 121.725 6.36489V4.81829Z" fill="black"/>
<path d="M130.967 12.9246H139.449V15.4845H132.603V16.6844H145.831V19.0843H132.603V23.7507C137.976 23.7507 142.585 23.7774 148.013 23.7774V22.4975H134.594V20.2309H148.013V15.4845H141.385V12.9246H149.894V11.6446H130.967V12.9246ZM132.058 9.93805C135.112 9.48474 139.04 8.04481 140.321 5.45826C141.631 8.07147 145.367 9.53807 148.285 9.91138V8.55145C144.385 7.77815 141.767 5.75158 141.467 3.77834C141.412 3.40503 141.385 3.00505 141.467 2.60506H139.203C139.285 3.00505 139.285 3.37836 139.203 3.77834C138.849 5.83158 135.549 8.04481 132.058 8.44479V9.93805Z" fill="black"/>
<path d="M152.502 13.4845H171.866V11.9646H152.502V13.4845ZM154.52 23.7241H169.63V22.4708H156.457V20.4442H169.63V15.8578H154.52V17.031H167.475V19.1909H154.52V23.7241ZM155.066 9.5914H169.33V2.79088H167.475V4.63164H156.921V2.79088H155.066V9.5914ZM156.921 8.2848V5.91157H167.475V8.2848H156.921Z" fill="black"/>
<path d="M173.843 21.7508H192.989V20.1242H184.207V16.8444H182.325V20.1242H173.843V21.7508ZM175.834 15.0311H190.971V13.8045H177.907V10.818H190.971V4.63164H175.834V6.25822H188.898V9.5914H175.834V15.0311Z" fill="black"/>
<path d="M195.564 21.6442H214.001V19.9109H195.564V21.6442ZM197.446 6.31156H209.664C209.91 8.9781 209.61 14.0445 207.837 17.0844H210.046C210.292 16.5244 210.592 15.7511 210.837 14.9245C211.328 13.1912 211.874 10.1514 211.874 6.41822V4.71163H197.446V6.31156Z" fill="black"/>
<g clip-path="url(#clip0_24_5218)">
<path d="M25.4399 7.52795H26.0019V5.82287L25.4399 5.27257V2.52451L23.7215 0.579536V0.55718H21.6838V0.922614L21.5061 0.673259V0.650903H19.8035V0H17.7667V0.650903H16.0799V1.20722L15.6868 0.613929L15.6815 0.625107V0.619089H13.6447V2.28203L13.4671 2.0258V2.00172L12.052 0.618229H9.45499L8.03995 2.00172V2.59329L8.03204 2.58555L7.64156 2.03955V2.00086L6.22652 0.617369H1.41416L0 2.00258V4.8779L1.41416 6.26053H1.43087L1.4124 6.26483L1.68767 6.53396H0V8.52536H0.00879452L2.01219 10.2064H2.80281V11.6045H1.68679V12.2571H0V13.6621H0.00527671L0.677178 14.319L0 14.9811V17.5374L1.41416 18.9209H2.00603L0.639362 20.2571V21.9381L2.0588 23.3207L3.9804 25.0017H8.03116L9.36001 23.7034V22.141L7.75149 20.5684H9.36001V20.0834L9.83492 20.5494L9.82964 20.5684H11.2799L11.7161 19.0507L12.7996 20.1109V23.3009L12.7952 23.3113L12.7996 23.3147V23.3199H12.8057L14.8126 25H17.4V24.2683L18.1132 24.9647H25.4601V23.5598L24.6396 22.7584H25.4601V19.7206L24.7847 19.086H25.4601V17.9682L24.688 17.2863H25.4601V15.8805L24.892 15.3663H25.4601V14.2476L24.5024 13.3629H25.4399V11.6586L23.8903 10.1453H25.4399V7.5288V7.52795ZM23.4066 9.69046H23.3926V9.67842L23.4066 9.69046Z" fill="#070606"/>
<path d="M15.3926 4.21412V0.919189H13.9424V11.399H15.3926V7.78247V7.51076V5.632H15.9176V4.21412H15.3926Z" fill="white"/>
<path d="M11.9363 0.919189H9.58642L8.34375 2.13329V7.03097L9.58642 8.24421H11.9363L13.179 7.03097V2.13329L11.9363 0.919189ZM11.7296 6.82719H9.79309V2.33449H11.7296V6.82719Z" fill="white"/>
<path d="M17.8264 9.98213V8.6958H16.3779V11.3992H23.425V9.98213H17.8264Z" fill="white"/>
<path d="M19.5114 0.951079V0.299316H18.063V0.951079H16.3779V1.78083H21.2114V0.951079H19.5114Z" fill="white"/>
<path d="M23.4252 4.15051V0.856445H21.9785V8.18233H23.4252V5.5684H23.9881V4.15051H23.4252Z" fill="white"/>
<path d="M17.6162 2.29053L16.3779 3.50549V7.02999L17.6197 8.24324H19.9714L21.2123 7.02999V3.50549L19.9714 2.29053H17.6162ZM19.7629 6.82707H17.8246V3.70841H19.7629V6.82707Z" fill="white"/>
<path d="M13.0954 12.5393V14.7422H12.4561V16.1593H13.0954V23.0286H13.9995V12.5393H13.0954Z" fill="white"/>
<path d="M15.3864 12.5393H14.4814V23.0286H15.3864V12.5393Z" fill="white"/>
<path d="M11.1096 13.3708H12.5361V12.5393H8.33321V13.3708H9.66207L8.1582 18.5969H9.30325L10.385 14.836L11.4693 18.5969H12.6153L11.1096 13.3708Z" fill="white"/>
<path d="M5.89679 12.54V13.8788H5.55469V15.2984H5.89679V16.2073H5.55469V17.6243H5.89679V18.5951H7.34701V12.54H5.89679Z" fill="white"/>
<path d="M3.42998 12.5392V11.8892H1.98064V12.5392H0.292969V13.3707H5.1326V12.5392H3.42998Z" fill="white"/>
<path d="M6.10644 19.1565H2.17528L0.932617 20.3715V21.8126L2.17792 23.0275H6.10468L7.34822 21.8126V20.3715L6.10644 19.1565ZM5.89713 21.6096H2.38283V20.5735H5.89713V21.6096Z" fill="white"/>
<path d="M3.88905 13.8806H1.53563L0.292969 15.0964V17.4146L1.53563 18.6295H3.88905L5.1326 17.4146V15.0964L3.88905 13.8806ZM3.68062 17.2117H1.74319V15.2985H3.68062V17.2117Z" fill="white"/>
<path d="M23.4477 16.2812H16.3945V17.1119H23.4477V16.2812Z" fill="white"/>
<path d="M17.8439 13.3946H23.4486V12.5623H16.3945V15.3138H23.4486V14.196H17.8439V13.3946Z" fill="white"/>
<path d="M22.0002 19.9546H16.3945V22.9941H23.4486V21.8763H17.8439V20.786H23.4486V18.0354H16.3945V19.1532H22.0002V19.9546Z" fill="white"/>
<path d="M0.311523 6.82788V8.24319H3.11082V11.3988H3.1161H4.5584V8.24319H7.35858V6.82788H0.311523Z" fill="white"/>
<path d="M6.11679 0.919317H1.55243L0.311523 2.13342V4.76884L1.55243 5.98294H6.11679L7.35858 4.76884V2.13256L6.11679 0.918457V0.919317ZM5.91012 4.56506H1.75998V2.33462H5.911V4.56506H5.91012Z" fill="white"/>
</g>
<defs>
<clipPath id="clip0_24_5218">
<rect width="26.0028" height="25" fill="white"/>
</clipPath>
</defs>
</svg>
