<?xml version="1.0" encoding="utf-8"?>
<!-- Generator: Adobe Illustrator 25.2.3, SVG Export Plug-In . SVG Version: 6.00 Build 0)  -->
<svg version="1.1" id="레이어_1" xmlns="http://www.w3.org/2000/svg" xmlns:xlink="http://www.w3.org/1999/xlink" x="0px"
	 y="0px" viewBox="0 0 36 36" style="enable-background:new 0 0 36 36;" xml:space="preserve">
<path id="Icon_awesome-search" d="M33,29.3l-6-6c-0.3-0.3-0.6-0.4-1-0.4h-1c4.3-5.5,3.3-13.3-2.2-17.6S9.5,1.9,5.2,7.4
	S1.9,20.7,7.4,25c4.5,3.5,10.9,3.5,15.4,0v1c0,0.4,0.1,0.8,0.4,1l6,6c0.6,0.6,1.5,0.6,2,0c0,0,0,0,0,0l1.7-1.7
	C33.6,30.7,33.6,29.8,33,29.3L33,29.3z M15.1,22.8c-4.3,0-7.7-3.5-7.7-7.7s3.5-7.7,7.7-7.7s7.7,3.5,7.7,7.7l0,0
	C22.8,19.4,19.4,22.8,15.1,22.8C15.1,22.8,15.1,22.8,15.1,22.8L15.1,22.8z"/>
</svg>
