<svg width="26" height="26" viewBox="0 0 26 26" fill="none" xmlns="http://www.w3.org/2000/svg">
<path d="M15.2208 12.9999L11.375 15.1666V10.8333L15.2208 12.9999Z" fill="black" stroke="black" stroke-width="1.5" stroke-linecap="round" stroke-linejoin="round"/>
<path d="M2.16699 13.8629V12.1357C2.16699 8.60189 2.16699 6.83438 3.14741 5.69795C4.12891 4.56029 5.67374 4.51147 8.76233 4.41259C10.2248 4.36621 11.7198 4.33325 13.0003 4.33325C14.2797 4.33325 15.7747 4.36621 17.2383 4.41259C20.3269 4.51147 21.8717 4.56029 22.8522 5.69795C23.8337 6.83438 23.8337 8.60311 23.8337 12.1357V13.8629C23.8337 17.3979 23.8337 19.1642 22.8532 20.3019C21.8717 21.4383 20.328 21.4884 17.2383 21.586C15.7758 21.6336 14.2808 21.6666 13.0003 21.6666C11.5874 21.6618 10.1746 21.6349 8.76233 21.586C5.67374 21.4884 4.12891 21.4395 3.14741 20.3019C2.16699 19.1642 2.16699 17.3967 2.16699 13.8641V13.8629Z" stroke="black" stroke-width="2"/>
</svg>
