<svg id="유튜브" xmlns="http://www.w3.org/2000/svg" width="22" height="22" viewBox="0 0 22 22">
  <metadata><?xpacket begin="﻿" id="W5M0MpCehiHzreSzNTczkc9d"?>
<x:xmpmeta xmlns:x="adobe:ns:meta/" x:xmptk="Adobe XMP Core 5.6-c140 79.160451, 2017/05/06-01:08:21        ">
   <rdf:RDF xmlns:rdf="http://www.w3.org/1999/02/22-rdf-syntax-ns#">
      <rdf:Description rdf:about=""/>
   </rdf:RDF>
</x:xmpmeta>
                                                                                                    
                                                                                                    
                                                                                                    
                                                                                                    
                                                                                                    
                                                                                                    
                                                                                                    
                                                                                                    
                                                                                                    
                                                                                                    
                                                                                                    
                                                                                                    
                                                                                                    
                                                                                                    
                                                                                                    
                                                                                                    
                                                                                                    
                                                                                                    
                                                                                                    
                                                                                                    
                           
<?xpacket end="w"?></metadata>
<defs>
    <style>
      .cls-1, .cls-2, .cls-4 {
        fill: #757575;
      }

      .cls-1, .cls-3, .cls-4 {
        fill-rule: evenodd;
      }

      .cls-1, .cls-2 {
        opacity: 0.7;
      }

      .cls-3 {
        fill: #fff;
      }
    </style>
  </defs>
  <path id="인스타" class="cls-1" d="M-37,0h12a5,5,0,0,1,5,5V17a5,5,0,0,1-5,5H-37a5,5,0,0,1-5-5V5A5,5,0,0,1-37,0Zm0,2h12a3,3,0,0,1,3,3V17a3,3,0,0,1-3,3H-37a3,3,0,0,1-3-3V5A3,3,0,0,1-37,2Zm6,3a6,6,0,0,1,6,6,6,6,0,0,1-6,6,6,6,0,0,1-6-6A6,6,0,0,1-31,5Zm0,2a4,4,0,0,1,4,4,4,4,0,0,1-4,4,4,4,0,0,1-4-4A4,4,0,0,1-31,7Zm6-3a1,1,0,0,1,1,1,1,1,0,0,1-1,1,1,1,0,0,1-1-1A1,1,0,0,1-25,4Z"/>
  <path id="메일" class="cls-1" d="M77,20H65a5,5,0,0,1-5-5V7a5,5,0,0,1,5-5H77a5,5,0,0,1,5,5v8A5,5,0,0,1,77,20ZM62,15a3,3,0,0,0,3,3H77a3,3,0,0,0,3-3V7a2.967,2.967,0,0,0-.164-0.937L78.071,7.828l-3.536,3.536a5,5,0,0,1-7.071,0L63.929,7.828,62.164,6.063A2.967,2.967,0,0,0,62,7v8ZM65,4a2.977,2.977,0,0,0-1.6.471l1.236,1.236,0.707,0.707L68.879,9.95a3,3,0,0,0,4.243,0l3.535-3.536,0.707-.707L78.6,4.471A2.978,2.978,0,0,0,77,4H65Z"/>
  <path class="cls-1" d="M19,6S18.847,19,7,19a13.223,13.223,0,0,1-7-2s3.264-.322,5-2a4.06,4.06,0,0,1-3-2H4A11.276,11.276,0,0,1,0,8H2S0.59,7.329,1,3C1,3,4.11,7,9,7a1,1,0,0,0,1-1s0.035-4,5-4a5.362,5.362,0,0,1,3,1l3-1L19,4h2Z"/>
  <rect id="box" class="cls-2" x="-96" y="2" width="24" height="18" rx="5" ry="5"/>
  <path id="_" data-name="&gt;" class="cls-3" d="M-86,15V7l6,4Z"/>
  <path id="페북" class="cls-4" d="M-126,7v4h-4V22h-4V11h-3V7h3V4a4,4,0,0,1,4-4h4V4h-2a2,2,0,0,0-2,2V7h4Z"/>
</svg>
